<?xml version="1.0" encoding="UTF-8"?>
<svg width="800" height="400" viewBox="0 0 800 400" fill="none" xmlns="http://www.w3.org/2000/svg">
  <!-- Background -->
  <rect width="800" height="400" fill="#F5F5F5"/>
  
  <!-- Main Building -->
  <rect x="200" y="100" width="400" height="250" fill="#E0E0E0"/>
  
  <!-- Entrance -->
  <rect x="350" y="250" width="100" height="100" fill="#D4D4D4"/>
  <path d="M350 250 L400 200 L450 250" fill="#EEEEEE"/>
  
  <!-- Windows -->
  <rect x="250" y="150" width="50" height="60" fill="#FAFAFA"/>
  <rect x="375" y="150" width="50" height="60" fill="#FAFAFA"/>
  <rect x="500" y="150" width="50" height="60" fill="#FAFAFA"/>
  
  <!-- Columns -->
  <rect x="235" y="100" width="20" height="250" fill="#D4D4D4"/>
  <rect x="390" y="100" width="20" height="250" fill="#D4D4D4"/>
  <rect x="545" y="100" width="20" height="250" fill="#D4D4D4"/>
  
  <!-- Steps -->
  <rect x="300" y="350" width="200" height="10" fill="#BDBDBD"/>
  <rect x="320" y="360" width="160" height="10" fill="#BDBDBD"/>
  <rect x="340" y="370" width="120" height="10" fill="#BDBDBD"/>
  
  <!-- Roof -->
  <path d="M150 100 L400 20 L650 100" fill="#EEEEEE"/>
</svg>